<svg xmlns="http://www.w3.org/2000/svg" viewBox="0 0 32 32" width="32" height="32">
  <rect width="32" height="32" rx="6" fill="#0A0A0A"/>
  <!-- Tooth outline (white) -->
  <path d="M16 4C13 4 11 5.8 10 8C9 10.5 8.5 13.5 9 17C9.5 20.5 10.5 23.5 11.5 26C12 27.2 13.2 27.2 13.7 26C14.2 24.2 14.7 21.5 16 21.5C17.3 21.5 17.8 24.2 18.3 26C18.8 27.2 20 27.2 20.5 26C21.5 23.5 22.5 20.5 23 17C23.5 13.5 23 10.5 22 8C21 5.8 19 4 16 4Z" fill="none" stroke="white" stroke-width="1.8"/>
  <!-- Tooth fill swoosh -->
  <path d="M12 9.5C13 8.5 14.5 8 16 8C17.5 8 19 8.5 20 9.5C19 11 17.5 11.5 16 11.5C14.5 11.5 13 11 12 9.5Z" fill="white" opacity="0.3"/>
  <!-- Teal checkmark -->
  <path d="M13 17L15.5 20L20 12" fill="none" stroke="#14B8A6" stroke-width="2.2" stroke-linecap="round" stroke-linejoin="round"/>
</svg>